# xmcd
#
# Track frame offsets: 
#        150
#        15251
#        28956
#        42365
#        54985
#        66801
#        81003
#        94803
#        107587
#        130730
#        140518
#        153369
#        163945
#        178874
#        190113
#        223632
#        242486
#        254295
#        269757
#        284014
#        300268
#        314835
#
# Disc length: 4476 seconds
#
# Revision: 0
# Processed by: cddbd v1.5.2PL0 Copyright (c) Steve Scherf et al.
# Submitted via: ExactAudioCopy v1.0b2
#
DISCID=3c117a16
DTITLE=Various Artist - Rough Guide To The Blues
DYEAR=2007
DGENRE=Blues
TTITLE0=Mamie Smith - Crazy Blues
TTITLE1=Blind Lemon Jefferson - Black Snake Moan
TTITLE2=Charley Patton - Pony Blues
TTITLE3=Memphis Minnie - Me And My Chauffeur Blues
TTITLE4=Robert Johnson - Crossroad Blues
TTITLE5=Blind Willie McTell - Broke Down Engine Blues
TTITLE6=Big Bill Broonzy - Key To The Highway
TTITLE7=Pete Johnson and Joe Turner - Roll 'Em Pete
TTITLE8=Muddy Waters - Mannish Boy
TTITLE9=Howlin' Wolf - Come Back Home
TTITLE10=T-Bone Walker - Stormy Monday Blues
TTITLE11=Arthur "Big Boy" Crudup - That's All Right (Original)
TTITLE12=Elmore James - It Hurts Me Too
TTITLE13=John Lee Hooker - Boom Boom
TTITLE14=B.B. King - Ain't Nobody Home (Live)
TTITLE15=Sonny Boy Williamson and The Animals - Night Time Is The Right 
TTITLE15=Time
TTITLE16=Buddy Guy - Try To Quit You Baby
TTITLE17=Albert King - Born Under A Bad Sign (Original)
TTITLE18=Albert Collins - Ice Pick
TTITLE19=Hound Dog Taylor and The House Rockers - Give Me Back My Wig
TTITLE20=R.L. Burnside - Goin' Down South
TTITLE21=Ali Farka Touré - Erdi
EXTD=
EXTT0=
EXTT1=
EXTT2=
EXTT3=
EXTT4=
EXTT5=
EXTT6=
EXTT7=
EXTT8=
EXTT9=
EXTT10=
EXTT11=
EXTT12=
EXTT13=
EXTT14=
EXTT15=
EXTT16=
EXTT17=
EXTT18=
EXTT19=
EXTT20=
EXTT21=
PLAYORDER=
